<?xml version="1.0" encoding="UTF-8" standalone="no"?>
<svg
   width="225.65"
   height="46.59"
   version="1.1"
   id="svg37"
   sodipodi:docname="logo.svg"
   inkscape:version="1.1.1 (3bf5ae0d25, 2021-09-20)"
   xmlns:inkscape="http://www.inkscape.org/namespaces/inkscape"
   xmlns:sodipodi="http://sodipodi.sourceforge.net/DTD/sodipodi-0.dtd"
   xmlns="http://www.w3.org/2000/svg"
   xmlns:svg="http://www.w3.org/2000/svg">
  <sodipodi:namedview
     id="namedview39"
     pagecolor="#ffffff"
     bordercolor="#666666"
     borderopacity="1.0"
     inkscape:pageshadow="2"
     inkscape:pageopacity="0.0"
     inkscape:pagecheckerboard="0"
     showgrid="false"
     inkscape:zoom="2.6745653"
     inkscape:cx="42.623749"
     inkscape:cy="10.282045"
     inkscape:window-width="1920"
     inkscape:window-height="1009"
     inkscape:window-x="-8"
     inkscape:window-y="-8"
     inkscape:window-maximized="1"
     inkscape:current-layer="svg37" />
  <defs
     id="defs31">
    <rect
       x="44.680549"
       y="0"
       width="181.10164"
       height="46.663414"
       id="rect2710" />
    <rect
       x="44.680549"
       y="0"
       width="181.10164"
       height="46.663414"
       id="rect16958" />
    <rect
       x="44.680549"
       y="0"
       width="181.10164"
       height="46.663414"
       id="rect16964" />
  </defs>
  <desc
     id="desc33">DORAHEI</desc>
  <path
     d="m 218.01344,36.330022 h -7.25757 V 10.988261 h 6.96908 v 3.56976 h -4.82336 v 7.174864 h 4.44469 v 3.552088 h -4.44469 v 7.492962 h 5.11185 z"
     style="font-weight:bold;-inkscape-font-specification:'Yu Gothic UI Bold';text-align:center;text-anchor:middle;display:inline;fill:#479454;fill-opacity:1;stroke-width:1.49138"
     id="path867" />
  <path
     d="m 208.4569,14.558021 h -4.83236 v 7.616666 h 4.4537 v 3.552088 h -4.4537 v 10.603247 h -2.14571 V 10.988261 h 6.97807 z"
     style="font-weight:bold;-inkscape-font-specification:'Yu Gothic UI Bold';text-align:center;text-anchor:middle;stroke-width:1.49138;fill:#479454;fill-opacity:1"
     id="path865" />
  <path
     d="m 198.2963,36.330022 h -2.20881 V 10.988261 h 2.20881 z"
     style="font-weight:bold;-inkscape-font-specification:'Yu Gothic UI Bold';text-align:center;text-anchor:middle;display:inline;fill:#479454;fill-opacity:1;stroke-width:1.49138"
     id="path863" />
  <path
     d="m 194.23026,36.330022 h -7.15839 V 10.988261 h 2.14572 v 21.789674 h 5.01267 z"
     style="font-weight:bold;-inkscape-font-specification:'Yu Gothic UI Bold';text-align:center;text-anchor:middle;display:inline;fill:#479454;fill-opacity:1;stroke-width:1.49138"
     id="path861" />
  <path
     d="m 179.69712,36.330022 h -7.25757 V 10.988261 h 6.96907 v 3.56976 h -4.82335 v 7.174864 h 4.44469 v 3.552088 h -4.44469 v 7.492962 h 5.11185 z"
     style="font-weight:bold;-inkscape-font-specification:'Yu Gothic UI Bold';text-align:center;text-anchor:middle;stroke-width:1.49138;fill:#479454;fill-opacity:1"
     id="path859" />
  <path
     d="m 161.79212,35.322713 v -4.329658 q 0.29751,0.530161 0.70321,0.954292 0.41472,0.42413 0.87452,0.724556 0.45979,0.282753 0.91959,0.441802 0.45979,0.159046 0.84747,0.159046 1.35234,0 2.01048,-0.883605 0.66715,-0.883603 0.66715,-2.562451 0,-0.901276 -0.22539,-1.555142 -0.21636,-0.671539 -0.61306,-1.219372 -0.39668,-0.547837 -0.93762,-1.042653 -0.53192,-0.512492 -1.14498,-1.060326 -0.65814,-0.689212 -1.22612,-1.396095 -0.56799,-0.706882 -0.99172,-1.555142 -0.41472,-0.865933 -0.65814,-1.943929 -0.23441,-1.077997 -0.23441,-2.527107 0,-1.78488 0.4057,-3.092614 0.41473,-1.325406 1.08189,-2.173666 0.67616,-0.865932 1.53265,-1.27239 0.85648,-0.424129 1.74902,-0.424129 2.02851,0 2.95712,0.901276 v 4.152938 q -1.0999,-1.555143 -2.8309,-1.555143 -0.47782,0 -0.95565,0.17672 -0.46882,0.176721 -0.84748,0.583179 -0.36963,0.406458 -0.60403,1.042653 -0.23441,0.636194 -0.23441,1.53747 0,0.84826 0.18031,1.466783 0.18031,0.618523 0.5229,1.131013 0.35161,0.51249 0.84747,1.007308 0.50489,0.477146 1.16302,1.042653 0.67617,0.689212 1.27119,1.44911 0.60405,0.759899 1.05485,1.678849 0.45979,0.918947 0.72123,2.049961 0.27045,1.113341 0.27045,2.544778 0,1.926258 -0.39667,3.251664 -0.39669,1.325404 -1.07286,2.155993 -0.66715,0.830588 -1.54165,1.201701 -0.87452,0.371114 -1.84822,0.371114 -0.32455,0 -0.80237,-0.106029 -0.46882,-0.08836 -0.96469,-0.282754 -0.49586,-0.176732 -0.93762,-0.441803 -0.44175,-0.265082 -0.71223,-0.600851 z"
     style="font-weight:bold;-inkscape-font-specification:'Yu Gothic UI Bold';text-align:center;text-anchor:middle;stroke-width:1.49138;fill:#479454;fill-opacity:1"
     id="path857" />
  <path
     d="m 153.75921,36.754152 q -2.79485,0 -4.48077,-3.552088 -1.67688,-3.552087 -1.67688,-9.242496 0,-6.11454 1.71295,-9.754988 1.71298,-3.640448 4.65207,-3.640448 2.7227,0 4.38157,3.534415 1.66788,3.534416 1.66788,9.242498 0,6.202899 -1.70395,9.808003 -1.70393,3.605104 -4.55287,3.605104 z m 0.0992,-22.496556 q -1.77607,0 -2.89401,2.597796 -1.1089,2.597796 -1.1089,6.839094 0,4.223627 1.08187,6.80375 1.08188,2.580125 2.83089,2.580125 1.85722,0 2.93007,-2.456419 1.07286,-2.456419 1.07286,-6.874439 0,-4.541724 -1.04581,-7.015816 -1.03679,-2.474091 -2.86697,-2.474091 z"
     style="font-weight:bold;-inkscape-font-specification:'Yu Gothic UI Bold';text-align:center;text-anchor:middle;display:inline;fill:#479454;fill-opacity:1;stroke-width:1.49138"
     id="path855" />
  <path
     d="m 139.80306,36.754152 q -2.79484,0 -4.48076,-3.552088 -1.67691,-3.552087 -1.67691,-9.242496 0,-6.11454 1.71297,-9.754988 1.71298,-3.640448 4.65205,-3.640448 2.72272,0 4.3816,3.534415 1.66788,3.534416 1.66788,9.242498 0,6.202899 -1.70395,9.808003 -1.70395,3.605104 -4.55288,3.605104 z m 0.0992,-22.496556 q -1.77607,0 -2.89401,2.597796 -1.10892,2.597796 -1.10892,6.839094 0,4.223627 1.08188,6.80375 1.08186,2.580125 2.8309,2.580125 1.85721,0 2.93006,-2.456419 1.07286,-2.456419 1.07286,-6.874439 0,-4.541724 -1.0458,-7.015816 -1.0368,-2.474091 -2.86697,-2.474091 z"
     style="font-weight:bold;-inkscape-font-specification:'Yu Gothic UI Bold';text-align:center;text-anchor:middle;stroke-width:1.49138;fill:#479454;fill-opacity:1"
     id="path853" />
  <path
     d="m 132.78892,36.330022 h -7.15841 V 10.988261 h 2.14573 v 21.789674 h 5.01268 z"
     style="font-weight:bold;-inkscape-font-specification:'Yu Gothic UI Bold';text-align:center;text-anchor:middle;stroke-width:1.49138;fill:#479454;fill-opacity:1"
     id="path851" />
  <path
     d="m 117.37223,36.330022 h -2.20882 V 10.988261 h 2.20882 z"
     style="font-weight:bold;-inkscape-font-specification:'Yu Gothic UI Bold';text-align:center;text-anchor:middle;stroke-width:1.49138;fill:#479454;fill-opacity:1"
     id="path849" />
  <path
     d="m 112.87344,36.330022 h -7.25757 V 10.988261 h 6.96907 v 3.56976 h -4.82335 v 7.174864 h 4.44468 v 3.552088 h -4.44468 v 7.492962 h 5.11185 z"
     style="font-weight:bold;-inkscape-font-specification:'Yu Gothic UI Bold';text-align:center;text-anchor:middle;display:inline;fill:#479454;fill-opacity:1;stroke-width:1.49138"
     id="path847" />
  <path
     d="m 102.42436,36.330022 h -2.15474 V 25.33799 H 94.184083 V 36.330022 H 92.038367 V 10.988261 h 2.145716 v 10.656264 h 6.085537 V 10.988261 h 2.15474 z"
     style="font-weight:bold;-inkscape-font-specification:'Yu Gothic UI Bold';text-align:center;text-anchor:middle;display:inline;fill:#479454;fill-opacity:1;stroke-width:1.49138"
     id="path845" />
  <path
     d="m 90.262297,36.330022 h -2.353073 l -1.163013,-6.450307 h -5.084803 l -1.117935,6.450307 h -2.344058 l 4.841381,-25.341761 h 2.416182 z m -4.08407,-9.878691 -1.794106,-10.10843 q -0.08115,-0.494818 -0.171295,-1.590487 h -0.03606 q -0.08114,1.007309 -0.180312,1.590487 l -1.776074,10.10843 z"
     style="font-weight:bold;-inkscape-font-specification:'Yu Gothic UI Bold';text-align:center;text-anchor:middle;stroke-width:1.49138;fill:#479454;fill-opacity:1"
     id="path843" />
  <path
     d="M 78.136304,36.330022 H 75.629965 L 73.56539,29.543944 q -0.279483,-0.936619 -0.54995,-1.590488 -0.261454,-0.671539 -0.540938,-1.095667 -0.270469,-0.424131 -0.59503,-0.618524 -0.324561,-0.194396 -0.730264,-0.194396 H 70.28371 V 36.330018 H 68.147011 V 10.988261 h 4.255366 q 0.910577,0 1.676904,0.424131 0.766326,0.424129 1.334309,1.290061 0.567982,0.84826 0.88353,2.138322 0.324562,1.272389 0.324562,2.986581 0,1.343078 -0.207359,2.474091 -0.198344,1.113342 -0.576999,1.996945 -0.369639,0.865931 -0.901561,1.484454 -0.522905,0.618523 -1.181044,0.954294 v 0.07068 q 0.351608,0.388785 0.613061,0.865932 0.261454,0.459474 0.495858,0.954292 0.234407,0.494819 0.459796,1.131014 0.234407,0.618522 0.51389,1.44911 z M 70.28371,14.398973 v 8.235188 h 1.785089 q 0.49586,0 0.910578,-0.300425 0.423733,-0.300426 0.730264,-0.865932 0.30653,-0.565506 0.477828,-1.378422 0.171294,-0.812916 0.171294,-1.820224 0,-1.820224 -0.586013,-2.845204 -0.586014,-1.024981 -1.685918,-1.024981 z"
     style="font-weight:bold;-inkscape-font-specification:'Yu Gothic UI Bold';text-align:center;text-anchor:middle;stroke-width:1.49138;fill:#479454;fill-opacity:1"
     id="path841" />
  <path
     d="m 59.519077,36.754152 q -2.794839,0 -4.480756,-3.552088 -1.676904,-3.552087 -1.676904,-9.242496 0,-6.11454 1.712966,-9.754988 1.712964,-3.640448 4.652052,-3.640448 2.722714,0 4.381586,3.534415 1.667887,3.534416 1.667887,9.242498 0,6.202899 -1.70395,9.808003 -1.703949,3.605104 -4.552881,3.605104 z m 0.09917,-22.496556 q -1.776074,0 -2.894009,2.597796 -1.10892,2.597796 -1.10892,6.839094 0,4.223627 1.081872,6.80375 1.081873,2.580125 2.830901,2.580125 1.857215,0 2.930073,-2.456419 1.072856,-2.456419 1.072856,-6.874439 0,-4.541724 -1.045811,-7.015816 -1.036794,-2.474091 -2.866962,-2.474091 z"
     style="font-weight:bold;-inkscape-font-specification:'Yu Gothic UI Bold';text-align:center;text-anchor:middle;stroke-width:1.49138;fill:#479454;fill-opacity:1"
     id="path839" />
  <path
     d="M 40.946928,36.330022 V 10.988261 h 3.73246 q 7.149377,0 7.149377,12.352784 0,5.86713 -1.983434,9.43689 -1.983434,3.552087 -5.319208,3.552087 z m 2.136697,-21.772001 v 18.219914 h 1.712966 q 2.262918,0 3.516087,-2.438748 1.262183,-2.438745 1.262183,-6.89211 0,-8.889056 -4.697129,-8.889056 z"
     style="font-weight:bold;-inkscape-font-specification:'Yu Gothic UI Bold';text-align:center;text-anchor:middle;display:inline;fill:#479454;fill-opacity:1;stroke-width:1.49138"
     id="path837" />
  <path
     style="display:inline;fill:#479454"
     id="path12023"
     d="m 9.2704228,24.863288 c -0.1283697,-1.346534 0.032082,-2.667304 0.3471438,-3.974312 0.5121994,-1.590772 1.4538304,-3.010371 2.3453344,-4.412106 0.410464,-0.561902 1.041212,-1.863355 1.711463,-2.160368 0.09564,-0.04238 0.207239,-0.02868 0.310858,-0.04302 -6.3746886,0.151942 -3.683057,-0.442835 -2.609041,0.409974 0.544454,0.432318 0.994787,1.012124 1.441244,1.537718 0.926964,1.089324 1.630438,2.321342 2.045961,3.687505 0.23717,0.960859 0.232892,1.956465 0.227966,2.939656 -0.0033,0.724548 -0.02012,1.448934 -0.02951,2.173413 0,0 3.726698,0.0028 3.726698,0.0028 v 0 c 0.0016,-0.725921 0.0046,-1.451839 0.0055,-2.177762 -0.01335,-1.019361 -0.0097,-2.051702 -0.243388,-3.049715 -0.449091,-1.40516 -1.170863,-2.679689 -2.102653,-3.826039 -0.441907,-0.555954 -0.892716,-1.128312 -1.397826,-1.630085 -0.02602,-0.02585 -0.637102,-0.576564 -0.754644,-0.581281 -1.33367,-0.05352 -2.669212,0.03832 -4.003818,0.05748 -0.9382131,0.534159 -1.3930949,1.585479 -1.9634628,2.457135 -0.8836246,1.451287 -1.8526577,2.900462 -2.368653,4.529705 -0.3100457,1.336406 -0.4257502,2.687386 -0.4246199,4.059261 0,0 3.7354565,0 3.7354565,0 z" />
  <path
     style="display:inline;fill:#479454"
     id="path12025"
     d="m 25.659349,23.509754 c -0.01417,-0.843918 -0.09119,-1.710453 0.06706,-2.547148 0.119717,-0.633 0.25454,-0.868233 0.500711,-1.45242 0.574525,-1.262271 1.564327,-2.208499 2.557085,-3.141862 0.216836,-0.185056 0.73133,-0.644467 0.994641,-0.794201 0.14728,-0.08375 0.315386,-0.123919 0.473079,-0.185878 -1.029055,0.04869 -2.071643,-0.02726 -3.087166,0.146054 -0.221286,0.03777 0.433184,0.14337 0.614308,0.275988 0.243533,0.178313 0.425961,0.427753 0.638941,0.641629 0.199504,0.300116 0.409457,0.593542 0.598512,0.900348 0.08709,0.141339 1.154754,2.018853 1.225845,2.139407 0.583949,0.990237 1.203315,1.959551 1.794406,2.945592 0.543056,0.914286 1.04153,1.861357 1.235267,2.914219 0,0 3.72119,-0.06988 3.72119,-0.06988 v 0 C 36.776433,24.172554 36.235486,23.186449 35.632682,22.238996 35.019333,21.263813 34.383809,20.300183 33.79865,19.307628 32.881313,17.751627 33.480865,18.694934 32.598791,17.15051 32.413806,16.826618 32.215664,16.51042 32.0241,16.190375 c -0.184077,-0.232713 -0.763221,-1.129059 -1.216211,-1.171 -3.646959,-0.337667 -3.75892,-0.684097 -5.668422,1.053245 -1.012305,0.977468 -2.015106,1.966352 -2.554392,3.29747 -0.231073,0.594292 -0.387128,0.918657 -0.508918,1.555369 -0.162416,0.849096 -0.08796,1.727118 -0.146751,2.584296 0,0 3.729947,0 3.729947,0 z" />
  <path
     style="display:inline;fill:#479454"
     id="path12027"
     d="m 11.284773,32.607974 c 0.919617,1.123625 1.901057,2.192984 2.884706,3.26028 1.319998,1.483066 2.431133,1.641484 4.33761,1.713538 2.661935,-0.06473 6.259968,0.159714 8.867877,-1.049928 0.282177,-0.130884 0.543746,-0.302255 0.815619,-0.453383 1.308022,-0.954217 2.427204,-2.132466 3.260278,-3.519535 0.353389,-0.757898 0.199113,-0.375293 0.465719,-1.146644 0,0 -3.675467,-0.124286 -3.675467,-0.124286 v 0 c -0.257695,0.720192 -0.108543,0.363111 -0.450458,1.069984 -0.823793,1.324441 -1.88789,2.469892 -3.198955,3.329209 -0.26711,0.134869 -0.525559,0.288473 -0.80133,0.404608 -0.945379,0.398128 -1.990919,0.594038 -3.001477,0.734067 -0.385883,0.05347 -1.546986,0.06417 -1.162083,0.12429 0.80447,0.125655 1.627669,0.05037 2.441503,0.07555 -1.758192,-0.0096 -3.016382,-0.06205 -4.275179,-1.429388 -0.976914,-1.04164 -1.951518,-2.092737 -2.788983,-3.252369 0,0 -3.71938,0.264007 -3.71938,0.264007 z" />
  <path
     style="display:inline;fill:#479454"
     id="path12029"
     d="m 15.816688,32.811588 c 1.028094,-0.0042 2.056199,-0.0061 3.084302,-0.0057 0.898946,-0.007 1.816616,-0.06378 2.698137,-0.252133 0.857821,-0.125037 1.713412,-0.260569 2.570825,-0.391963 0.780666,-0.07684 1.555586,-0.184987 2.333864,-0.283559 0.913684,-0.112765 1.83598,-0.114547 2.75508,-0.125348 0.545289,-0.005 1.090601,-0.005 1.635906,-0.005 0,0 -3.648552,-0.576983 -3.648552,-0.576983 v 0 c -0.539509,0.0026 -1.079021,0.0052 -1.6185,0.01183 -0.932828,0.0137 -1.868358,0.02679 -2.79327,0.16296 -0.777535,0.103939 -1.558247,0.177523 -2.333967,0.293896 -0.859748,0.140621 -1.723554,0.25004 -2.581892,0.398149 -0.874162,0.127022 -1.756432,0.216915 -2.641032,0.194299 -1.051939,4.29e-4 -2.103879,-0.0016 -3.155809,-0.0057 0,0 3.694908,0.585216 3.694908,0.585216 z" />
</svg>
