<svg xmlns="http://www.w3.org/2000/svg" xmlns:xlink="http://www.w3.org/1999/xlink" width="225.65" height="46.59" xmlns:v="https://vecta.io/nano"><g fill="#479454"><use xlink:href="#B"/><path d="M208.457 14.558h-4.832v7.617h4.454v3.552h-4.454V36.33h-2.146V10.988h6.978zM198.296 36.33h-2.209V10.988h2.209zm-4.066 0h-7.158V10.988h2.146v21.79h5.013z"/><use xlink:href="#B" x="-38.316"/><path d="M161.792 35.323v-4.33q.298.53.703.954.415.424.875.725.46.283.92.442.46.159.847.159 1.352 0 2.01-.884.667-.884.667-2.562 0-.901-.225-1.555-.216-.672-.613-1.219-.397-.548-.938-1.043-.532-.512-1.145-1.06-.658-.689-1.226-1.396-.568-.707-.992-1.555-.415-.866-.658-1.944-.234-1.078-.234-2.527 0-1.785.406-3.093.415-1.325 1.082-2.174.676-.866 1.533-1.272.856-.424 1.749-.424 2.029 0 2.957.901v4.153q-1.1-1.555-2.831-1.555-.478 0-.956.177-.469.177-.847.583-.37.406-.604 1.043-.234.636-.234 1.537 0 .848.18 1.467.18.619.523 1.131.352.512.847 1.007.505.477 1.163 1.043.676.689 1.271 1.449.604.76 1.055 1.679.46.919.721 2.05.27 1.113.27 2.545 0 1.926-.397 3.252-.397 1.325-1.073 2.156-.667.831-1.542 1.202-.875.371-1.848.371-.325 0-.802-.106-.469-.088-.965-.283-.496-.177-.938-.442-.442-.265-.712-.601z"/><use xlink:href="#C"/><use xlink:href="#C" x="-13.956"/><path d="M132.789 36.33h-7.158V10.988h2.146v21.79h5.013zm-15.417 0h-2.209V10.988h2.209z"/><use xlink:href="#B" x="-105.14"/><path d="M102.424 36.33h-2.155V25.338h-6.086V36.33h-2.146V10.988h2.146v10.656h6.086V10.988h2.155zm-12.162 0h-2.353l-1.163-6.45h-5.085l-1.118 6.45h-2.344l4.841-25.342h2.416zm-4.084-9.879l-1.794-10.108q-.081-.495-.171-1.59h-.036q-.081 1.007-.18 1.59L82.22 26.451zm-8.042 9.879H75.63l-2.065-6.786q-.279-.937-.55-1.59-.261-.672-.541-1.096-.27-.424-.595-.619-.325-.194-.73-.194h-.865V36.33h-2.137V10.988h4.255q.911 0 1.677.424.766.424 1.334 1.29.568.848.884 2.138.325 1.272.325 2.987 0 1.343-.207 2.474-.198 1.113-.577 1.997-.37.866-.902 1.484-.523.619-1.181.954v.071q.352.389.613.866.261.459.496.954.234.495.46 1.131.234.619.514 1.449zm-7.853-21.931v8.235h1.785q.496 0 .911-.3.424-.3.73-.866.307-.566.478-1.378.171-.813.171-1.82 0-1.82-.586-2.845-.586-1.025-1.686-1.025z"/><use xlink:href="#C" x="-94.24"/><path d="M40.947 36.33V10.988h3.732q7.149 0 7.149 12.353 0 5.867-1.983 9.437-1.983 3.552-5.319 3.552zm2.137-21.772v18.22h1.713q2.263 0 3.516-2.439 1.262-2.439 1.262-6.892 0-8.889-4.697-8.889zM9.27 24.863c-.128-1.347.032-2.667.347-3.974.512-1.591 1.454-3.01 2.345-4.412.41-.562 1.041-1.863 1.711-2.16.096-.042.207-.029.311-.043-6.375.152-3.683-.443-2.609.41.544.432.995 1.012 1.441 1.538.927 1.089 1.63 2.321 2.046 3.688.237.961.233 1.956.228 2.94l-.03 2.173 3.727.003h0l.006-2.178c-.013-1.019-.01-2.052-.243-3.05-.449-1.405-1.171-2.68-2.103-3.826l-1.398-1.63c-.026-.026-.637-.577-.755-.581-1.334-.054-2.669.038-4.004.057-.938.534-1.393 1.585-1.963 2.457-.884 1.451-1.853 2.9-2.369 4.53-.31 1.336-.426 2.687-.425 4.059H9.27zm16.389-1.353c-.014-.844-.091-1.71.067-2.547.12-.633.255-.868.501-1.452.575-1.262 1.564-2.208 2.557-3.142l.995-.794c.147-.084.315-.124.473-.186-1.029.049-2.072-.027-3.087.146-.221.038.433.143.614.276.244.178.426.428.639.642l.599.9 1.226 2.139 1.794 2.946c.543.914 1.042 1.861 1.235 2.914l3.721-.07h0c-.217-1.109-.758-2.095-1.361-3.043l-1.834-2.931-1.2-2.157-.575-.96c-.184-.233-.763-1.129-1.216-1.171-3.647-.338-3.759-.684-5.668 1.053-1.012.977-2.015 1.966-2.554 3.297-.231.594-.387.919-.509 1.555-.162.849-.088 1.727-.147 2.584h3.73zm-14.374 9.098l2.885 3.26c1.32 1.483 2.431 1.641 4.338 1.714 2.662-.065 6.26.16 8.868-1.05.282-.131.544-.302.816-.453 1.308-.954 2.427-2.132 3.26-3.52.353-.758.199-.375.466-1.147l-3.675-.124h0c-.258.72-.109.363-.45 1.07-.824 1.324-1.888 2.47-3.199 3.329l-.801.405c-.945.398-1.991.594-3.001.734-.386.053-1.547.064-1.162.124.804.126 1.628.05 2.442.076-1.758-.01-3.016-.062-4.275-1.429l-2.789-3.252-3.719.264z"/><path d="M15.817 32.812l3.084-.006c.899-.007 1.817-.064 2.698-.252l2.571-.392 2.334-.284c.914-.113 1.836-.115 2.755-.125l1.636-.005-3.649-.577h0l-1.619.012-2.793.163-2.334.294-2.582.398c-.874.127-1.756.217-2.641.194a732.99 732.99 0 0 1-3.156-.006l3.695.585z"/></g><defs ><path id="B" d="M218.013 36.33h-7.258V10.988h6.969v3.57h-4.823v7.175h4.445v3.552h-4.445v7.493h5.112z"/><path id="C" d="M153.759 36.754q-2.795 0-4.481-3.552-1.677-3.552-1.677-9.242 0-6.115 1.713-9.755 1.713-3.64 4.652-3.64 2.723 0 4.382 3.534 1.668 3.534 1.668 9.242 0 6.203-1.704 9.808-1.704 3.605-4.553 3.605zm.099-22.497q-1.776 0-2.894 2.598-1.109 2.598-1.109 6.839 0 4.224 1.082 6.804 1.082 2.58 2.831 2.58 1.857 0 2.93-2.456 1.073-2.456 1.073-6.874 0-4.542-1.046-7.016-1.037-2.474-2.867-2.474z"/></defs></svg>